<svg id="visa" xmlns="http://www.w3.org/2000/svg" width="32.031" height="19" viewBox="0 0 32.031 19">
  <defs>
    <style>
      .cls-1, .cls-2 {
        fill: #1470b0;
      }

      .cls-1 {
        fill-opacity: 0;
      }

      .cls-2, .cls-3 {
        fill-rule: evenodd;
      }

      .cls-3 {
        fill: #ffb927;
      }
    </style>
  </defs>
  <rect class="cls-1" x="0.031" width="32" height="19"/>
  <path id="Shape_337_copy_2" data-name="Shape 337 copy 2" class="cls-2" d="M215.108,302s-0.23-1.4-.307-1.752h-3.318c-0.092.275-.551,1.752-0.551,1.752h-2.707l3.839-9.156a1.268,1.268,0,0,1,1.346-.84h2l2.1,10h-2.4Zm-1.331-6.441-0.184-.854c-0.122.381-.352,0.976-0.336,0.961,0,0-.826,2.212-1.025,2.792h2.141C214.266,297.954,213.777,295.559,213.777,295.559Zm-5.568-1.25a4.337,4.337,0,0,0-1.927-.382c-1.025,0-1.484.427-1.5,0.854,0,0.474.551,0.778,1.468,1.236,1.484,0.7,2.172,1.572,2.157,2.716-0.015,2.059-1.774,3.4-4.5,3.4a7.9,7.9,0,0,1-2.875-.533l0.351-2.243,0.352,0.168a5.213,5.213,0,0,0,2.417.534,1.347,1.347,0,0,0,1.56-.977c0-.442-0.336-0.763-1.346-1.251-0.979-.472-2.279-1.266-2.264-2.7,0.016-1.937,1.805-3.3,4.36-3.3a6.559,6.559,0,0,1,2.325.411l-0.352,2.167ZM196.829,302l1.622-10h2.585l-1.621,10h-2.586Zm-6.225,0-2.305-8.671c-0.078-.046-0.161-0.088-0.242-0.132H189.6l0.57,0.4,1.046,1.6,0.444,1.226,0.2,1.013,0.276,1.373L194.673,292h2.738l-4.069,10H190.6Z" transform="translate(-185.969 -287)"/>
  <path id="Shape_338_copy_2" data-name="Shape 338 copy 2" class="cls-3" d="M189.435,294.494a5.9,5.9,0,0,0-1-.633l-0.147-.554a10.387,10.387,0,0,0-2.323-1.009v-0.31h3.971a1.04,1.04,0,0,1,1.015.825l0.86,4.407A10.8,10.8,0,0,0,189.435,294.494Z" transform="translate(-185.969 -287)"/>
</svg>
