<svg id="mir" xmlns="http://www.w3.org/2000/svg" xmlns:xlink="http://www.w3.org/1999/xlink" width="35" height="9" viewBox="0 0 35 9">
  <defs>
    <style>
      .cls-1 {
        fill: #52b461;
      }

      .cls-1, .cls-2 {
        fill-rule: evenodd;
      }

      .cls-2 {
        fill: url(#linear-gradient);
      }
    </style>
    <linearGradient id="linear-gradient" x1="630" y1="293.5" x2="619.531" y2="293.5" gradientUnits="userSpaceOnUse">
      <stop offset="0" stop-color="#198eca"/>
      <stop offset="1" stop-color="#1db5e4"/>
    </linearGradient>
  </defs>
  <path id="Rectangle_295_copy" data-name="Rectangle 295 copy" class="cls-1" d="M604.01,301v-5.345h-0.244L602.026,301H599.96v0l-0.006,0-1.736-5.345h-0.242V301H595v-9h2.976a1.724,1.724,0,0,1,1.66,1.186h0l1.223,4.16h0.257l1.225-4.16h0A1.726,1.726,0,0,1,604.01,292h2.976v9H604.01Z" transform="translate(-595 -292)"/>
  <path class="cls-1" d="M614.978,301v-5.345h-0.227l-1.881,4.485h0a1.46,1.46,0,0,1-1.332.86h-2.525v-9h3v5.345h0.238l1.905-4.49,0.015-.034,0,0h0a1.46,1.46,0,0,1,1.312-.817h2.525v9h-3.028Z" transform="translate(-595 -292)"/>
  <path class="cls-1" d="M626.547,298.014h-3.528V301h-3v-5.007h9.953A3.6,3.6,0,0,1,626.547,298.014Z" transform="translate(-595 -292)"/>
  <path id="Ellipse_53_copy_2" data-name="Ellipse 53 copy 2" class="cls-2" d="M629.919,295.006h-5.412c-2.472,0-4.528-1.3-4.961-3.006h7.023c1.89,0,3.422,1.117,3.422,2.494A1.873,1.873,0,0,1,629.919,295.006Z" transform="translate(-595 -292)"/>
</svg>
