<svg id="Black" xmlns="http://www.w3.org/2000/svg" width="487" height="159" viewBox="0 0 487 159">
  <defs>
    <style>
      .cls-1, .cls-2 {
        fill: #333;
        fill-rule: evenodd;
      }

      .cls-2 {
        fill-opacity: 0.6;
      }
    </style>
  </defs>
  <path class="cls-1" d="M1015.01,818.989a3.992,3.992,0,1,1,4-3.992A4,4,0,0,1,1015.01,818.989Zm1.08-1.666c-0.05.061-.06,0.235,0.07,0.181a2.73,2.73,0,0,0,.41-0.651,0.037,0.037,0,0,0,.02.025,0.5,0.5,0,0,0,.02-0.125c0.01-.011.02-0.041,0.01-0.009a0.181,0.181,0,0,0-.02-0.125,0.87,0.87,0,0,0-.15.21c-0.1.129-.33,0.137-0.27,0.356a0.33,0.33,0,0,1-.03-0.138,0.05,0.05,0,0,1-.05.03h0a1.572,1.572,0,0,1,.07-0.34,0.9,0.9,0,0,1-.07.138,0.148,0.148,0,0,0-.09.021,0.24,0.24,0,0,0,.09.181h0l0.01,0A1,1,0,0,1,1016.09,817.323Zm-1.08-5.254a2.99,2.99,0,0,0-.8.112,1.085,1.085,0,0,1-.18.132,0.421,0.421,0,0,0-.22.106,0.232,0.232,0,0,1-.07.21,1.554,1.554,0,0,0-.26.067,2.182,2.182,0,0,1-.24.366c0.19,0.03-.04.172-0.14,0.256a1.51,1.51,0,0,0-.23.29c-0.05.064-.13,0.069-0.17,0.131a1.474,1.474,0,0,0-.29.394,1.138,1.138,0,0,0-.15.466,0.926,0.926,0,0,0,.27.948,1.255,1.255,0,0,0,.42-0.045,0.234,0.234,0,0,1,.37.017c0.08,0.14.16-.015,0.24,0.051a1.267,1.267,0,0,1,.08.3c-0.16.162,0.23,0.464,0.32,0.6a0.842,0.842,0,0,1,.14.393,0.35,0.35,0,0,0,.09.461c0.16,0.188.32,0.387,0.47,0.575a2.81,2.81,0,0,0,.35.022c0.06,0,.12,0,0.19-0.009a0.523,0.523,0,0,0,.23-0.264c0.02-.083.21-0.107,0.16-0.256s0.07-.223.21-0.3a0.389,0.389,0,0,0,.21-0.447,2.786,2.786,0,0,1-.07-0.48,2.521,2.521,0,0,1,.26-0.425,2.052,2.052,0,0,0,.43-0.727,0.705,0.705,0,0,0,.04-0.345,1.506,1.506,0,0,1-.48.162,0.78,0.78,0,0,0-.38-0.365,1.355,1.355,0,0,1-.29-0.492,1.8,1.8,0,0,1-.31-0.466,0.808,0.808,0,0,1,.44.444,0.829,0.829,0,0,0,.3.332,2.6,2.6,0,0,0,.15.373,1,1,0,0,0,.55-0.291c-0.02-.092.07-0.124,0.14-0.142a0.374,0.374,0,0,1,.06-0.141c0.04-.059-0.01-0.136.05-0.131a0.284,0.284,0,0,0-.08-0.242c-0.05-.053-0.13-0.033-0.19-0.084a0.377,0.377,0,0,0-.08-0.127c-0.02.049,0.01,0.217-.09,0.178-0.14.044-.07-0.079-0.17-0.135-0.01.152-.06-0.018-0.12-0.057a0.371,0.371,0,0,1-.17-0.189,1.771,1.771,0,0,1,.4.2,0.078,0.078,0,0,0,.1-0.025c0.06-.07.09,0.051,0.12,0.072a1.032,1.032,0,0,0,.46-0.017,0.466,0.466,0,0,0,.26.152c0.04,0.077-.03.015-0.02,0.042a0.29,0.29,0,0,0,.15.113,0.083,0.083,0,0,0-.01-0.113,1.836,1.836,0,0,1,.27.453c0.05,0.077.11,0.226,0.17,0.353A2.939,2.939,0,0,0,1015.01,812.069Zm0.73,0.567a1.643,1.643,0,0,0-.26-0.224c0-.082.13-0.188,0.16-0.058a0.071,0.071,0,0,0-.05.053,1.1,1.1,0,0,1,.42.41,0.161,0.161,0,0,1-.18-0.027C1015.76,812.8,1015.7,812.654,1015.74,812.636Zm0.08-.3a0.059,0.059,0,0,0,.01-0.043c0.05,0.015.1,0.122,0.15,0.133C1015.93,812.484,1015.84,812.365,1015.82,812.334Zm-0.72.241c-0.09.014-.18,0.133-0.27,0.056a0.511,0.511,0,0,1,.03-0.212c0.09-.1.03,0,0.12-0.033a0.033,0.033,0,0,1-.02.029s0.53,0.105.36,0.212A0.338,0.338,0,0,1,1015.1,812.575Zm0.12,0.315c-0.01.024,0.05,0.514-.12,0.388a0.089,0.089,0,0,0-.13.012,0.463,0.463,0,0,1-.27-0.007,0.229,0.229,0,0,0-.26-0.033c-0.13.122,0.02,0.159-.17,0.11-0.12-.028-0.08-0.138-0.24-0.1a0.245,0.245,0,0,1-.08-0.056,2.2,2.2,0,0,1,.1-0.224c-0.12-.115-0.6.276-0.72,0.177,0-.021.31-0.265,0.36-0.311a0.78,0.78,0,0,1,.35-0.242c0.1-.069.16,0.043,0.21,0.136,0.11,0.189-.13.1-0.13,0.2,0.13,0.047.12,0.016,0.2-.077,0.06-.062-0.01-0.135.09-0.083,0.05-.048-0.31-0.257-0.11-0.311-0.04.047,0.25,0.19,0.15,0.264,0.11,0.129.04,0.22,0.16,0.241a0.318,0.318,0,0,1,0-.1,0.052,0.052,0,0,1,.04.013,0.915,0.915,0,0,1-.05-0.164c0.08,0.016.03,0.037,0.05-.021a0.1,0.1,0,0,1,.1,0c-0.07.089,0.06,0.048-.01,0.129a0.275,0.275,0,0,1,.07.1A0.809,0.809,0,0,0,1015.22,812.89Zm-1.24-.022a0.143,0.143,0,0,0,.06-0.012,2,2,0,0,0,.07-0.225A0.525,0.525,0,0,0,1013.98,812.868Zm-0.24-.232v-0.007a0.1,0.1,0,0,0,.05-0.032C1013.77,812.591,1013.76,812.642,1013.74,812.636Zm-1.43-3.3a1.894,1.894,0,0,1-.63,1.313v0.624a4.959,4.959,0,0,0-1.69,3.719,4.894,4.894,0,0,0,.11,1.019h-5.12a9.194,9.194,0,0,1,.19-2.618c0.3-.5.38-0.608,1.67-1.067a15.4,15.4,0,0,0,1.59-.619l0.01-1.058a1.894,1.894,0,0,1-.63-1.313,0.7,0.7,0,0,1-.63-0.628c-0.02-.234.04-0.882,0.41-0.817a5.83,5.83,0,0,1-.11-1.159,2.779,2.779,0,0,1,5.16,0,5.83,5.83,0,0,1-.11,1.159c0.37-.065.43,0.583,0.41,0.817A0.7,0.7,0,0,1,1012.31,809.334Z" transform="translate(-863 -709)"/>
  <g id="Yandex_Zen_copy_2" data-name="Yandex Zen copy 2">
    <path id="Rectangle_581_copy_2" data-name="Rectangle 581 copy 2" class="cls-2" d="M1337.79,862H1335v-3l8.27-4H1346v3Z" transform="translate(-863 -709)"/>
    <path class="cls-1" d="M1335,849l11,5v4l-11-5v-4Z" transform="translate(-863 -709)"/>
    <path id="Rectangle_581_copy" data-name="Rectangle 581 copy" class="cls-1" d="M1346,868l-11-5v-4l11,5v4Z" transform="translate(-863 -709)"/>
  </g>
  <g id="Flickr">
    <path id="Ellipse_78_copy" data-name="Ellipse 78 copy" class="cls-1" d="M1289.5,855a3.5,3.5,0,1,1-3.5,3.5A3.5,3.5,0,0,1,1289.5,855Zm8,0a3.5,3.5,0,1,1-3.5,3.5A3.5,3.5,0,0,1,1297.5,855Z" transform="translate(-863 -709)"/>
  </g>
  <g id="Behance">
    <path class="cls-1" d="M1348.5,713h-5a0.5,0.5,0,0,1,0-1h5A0.5,0.5,0,0,1,1348.5,713Zm-2.5,2a4,4,0,0,1,4,4h-6.31a2.125,2.125,0,0,0,2.31,2.313,2.013,2.013,0,0,0,2.11-1.313h1.75A3.994,3.994,0,1,1,1346,715Zm2.07,3a2.217,2.217,0,0,0-2.07-1.281,2.138,2.138,0,0,0-2.14,1.281h4.21Zm-10.57,5H1332V712h5a3,3,0,0,1,2.51,4.64A3.5,3.5,0,0,1,1337.5,723Zm-0.5-9h-3v2h3A1,1,0,0,0,1337,714Zm0.5,4H1334v3h3.5A1.5,1.5,0,0,0,1337.5,718Z" transform="translate(-863 -709)"/>
  </g>
  <g id="Dribbble">
    <path class="cls-1" d="M1340.5,771a6.5,6.5,0,1,1,6.5-6.5A6.5,6.5,0,0,1,1340.5,771Zm4.5-4.618a6.024,6.024,0,0,0-1.66-.257,6.229,6.229,0,0,0-.72.054,12.372,12.372,0,0,1,.3,2.528A4.916,4.916,0,0,0,1345,766.381Zm-3.7,2.912c0-.109.01-0.216,0.01-0.326a10.937,10.937,0,0,0-.27-2.376,6.146,6.146,0,0,0-2.75,2.229,4.829,4.829,0,0,0,2.21.553A4.929,4.929,0,0,0,1341.3,769.293Zm-4.3-1.412a7.778,7.778,0,0,1,3.57-2.853c-0.12-.327-0.27-0.647-0.42-0.959a7.506,7.506,0,0,1-4.5.158c0,0.091-.03.178-0.03,0.272A4.847,4.847,0,0,0,1337,767.881Zm0.48-7.181a4.859,4.859,0,0,0-1.48,1.916,6.025,6.025,0,0,0,1.66.258,6.09,6.09,0,0,0,1.62-.231A10.974,10.974,0,0,0,1337.48,760.7Zm1.52-.818a12.405,12.405,0,0,1,1.8,2.1,6.194,6.194,0,0,0,1.9-1.81,4.789,4.789,0,0,0-2.2-.547A4.848,4.848,0,0,0,1339,759.882Zm5.01,1.251a7.681,7.681,0,0,1-2.38,2.257,12.679,12.679,0,0,1,.52,1.207,7.725,7.725,0,0,1,1.19-.1,7.59,7.59,0,0,1,2.01.273c0-.092.02-0.179,0.02-0.272A4.843,4.843,0,0,0,1344.01,761.133Z" transform="translate(-863 -709)"/>
  </g>
  <g id="Li">
    <path class="cls-1" d="M1296,769v-6h2v6h-2Zm0-10h2v2h-2v-2Zm-8,10V759h2v8h4v2h-6Z" transform="translate(-863 -709)"/>
  </g>
  <g id="Open_ID" data-name="Open ID">
    <path class="cls-1" d="M874,859l1.358-1.357A5.143,5.143,0,0,0,873,856.331v-2.042a7.828,7.828,0,0,1,3.754,1.957L878,855v4h-4Zm-4,4.967c-3.9-.175-7-2.319-7-4.967,0-2.418,2.577-4.435,6-4.9v2.027c-2.3.358-4,1.5-4,2.873,0,1.563,2.2,2.832,5,2.972V853l2-1v11l-2,1v-0.033Z" transform="translate(-863 -709)"/>
  </g>
  <g id="Dropbox">
    <path class="cls-1" d="M1239,854.888l4.42-2.889,3.08,2.586-4.44,2.768Zm15,0L1249.58,852l-3.08,2.586,4.44,2.768Zm-7.5,4.685,4.44-2.22,3.06,1.917-4.4,2.889Zm0,0-4.44-2.22L1239,859.27l4.4,2.889Zm-4.4,2.81v0.95l4.4,2.666,4.42-2.646V862.4l-1.3.828-3.12-2.586-3.1,2.586Z" transform="translate(-863 -709)"/>
  </g>
  <g id="Bitrix24">
    <path id="Rounded_Rectangle_212_copy" data-name="Rounded Rectangle 212 copy" class="cls-1" d="M1252.5,819h-11.84v0a4.792,4.792,0,0,1-4.66-4.871,4.861,4.861,0,0,1,3.01-4.536c-0.01-.145-0.04-0.284-0.04-0.433a5.071,5.071,0,0,1,4.98-5.156,4.924,4.924,0,0,1,4.08,2.209,4.026,4.026,0,0,1,1.31-.24,4.2,4.2,0,0,1,4.11,3.8A4.686,4.686,0,0,1,1252.5,819Zm-6-10a3.5,3.5,0,1,0,3.5,3.5A3.5,3.5,0,0,0,1246.5,809Zm1.08,4h-1.16a0.422,0.422,0,0,1-.42-0.421v-2.124a0.451,0.451,0,0,1,.45-0.454h0.03a0.459,0.459,0,0,1,.46.454v1.7h0.64A0.422,0.422,0,0,1,1247.58,813Z" transform="translate(-863 -709)"/>
  </g>
  <g id="Ms">
    <path class="cls-1" d="M1288,806.646l7-2.647,4,1.765v11.471L1295,819l-7-3,7,1V807l-5,1v7l-2,1v-9.353Z" transform="translate(-863 -709)"/>
  </g>
  <g id="Google">
    <path id="Shape_444_copy_4" data-name="Shape 444 copy 4" class="cls-1" d="M917.5,757a7.476,7.476,0,0,1,6.09,3.15l-2.436,1.74a4.459,4.459,0,0,0-6.641-.733l-1.982-2.265A7.467,7.467,0,0,1,917.5,757Zm4,10H917v-3h8v3a7.283,7.283,0,0,1-2.711,3.429l-3.182-1.734A4.679,4.679,0,0,0,921.5,767Zm-2.358,1.712,3.135,1.71A8.327,8.327,0,0,1,917.5,772a7.476,7.476,0,0,1-5.311-2.205l2.109-2.137A4.484,4.484,0,0,0,917.5,769,5.059,5.059,0,0,0,919.139,768.712Zm-4.626-7.555a4.469,4.469,0,0,0-.215,6.5l-2.109,2.136a7.454,7.454,0,0,1,.356-10.886Zm-2.322,8.64" transform="translate(-863 -709)"/>
  </g>
  <g id="mailru">
    <path id="mailru_copy_14" data-name="mailru copy 14" class="cls-1" d="M1249.09,764.441a2.757,2.757,0,0,0-2.81-2.771h-0.06a2.736,2.736,0,0,0-2.67,3.007,2.673,2.673,0,0,0,2.67,2.921,2.848,2.848,0,0,0,2.87-2.807v-0.35Zm-2.86-4.318a4.216,4.216,0,0,1,3.02,1.356v0a0.642,0.642,0,0,1,.61-0.7h0.1a0.7,0.7,0,0,1,.67.723v6.178a0.388,0.388,0,0,0,.65.354c0.95-1.019,2.09-5.24-.6-7.686a6.218,6.218,0,0,0-7.64-.624,6.155,6.155,0,0,0-1.94,7.214,5.755,5.755,0,0,0,7.16,3.092c1.11-.465,1.62,1.094.47,1.6a7.524,7.524,0,0,1-8.84-3.382,7.6,7.6,0,0,1,12.25-8.815c2.58,2.8,2.42,8.044-.09,10.082a1.741,1.741,0,0,1-2.81-1.325l-0.01-.441a4.164,4.164,0,0,1-3,1.3,4.47,4.47,0,0,1,0-8.931h0" transform="translate(-863 -709)"/>
  </g>
  <g id="b">
    <path class="cls-1" d="M1294,724a5,5,0,0,1-5-5v-8a1,1,0,0,1,2,0v4.022A4.993,4.993,0,1,1,1294,724Zm0-8a3,3,0,1,0,3,3A3,3,0,0,0,1294,716Z" transform="translate(-863 -709)"/>
  </g>
  <g id="instagram">
    <path id="Rounded_Rectangle_1_copy" data-name="Rounded Rectangle 1 copy" class="cls-1" d="M1008,851h7a4,4,0,0,1,4,4v7a4,4,0,0,1-4,4h-7a4,4,0,0,1-4-4v-7A4,4,0,0,1,1008,851Zm0,2h7a2,2,0,0,1,2,2v7a2,2,0,0,1-2,2h-7a2,2,0,0,1-2-2v-7A2,2,0,0,1,1008,853Zm3.5,2a3.5,3.5,0,1,1-3.5,3.5A3.5,3.5,0,0,1,1011.5,855Zm0,2a1.5,1.5,0,1,1-1.5,1.5A1.5,1.5,0,0,1,1011.5,857Z" transform="translate(-863 -709)"/>
  </g>
  <g id="youtube">
    <path class="cls-1" d="M968,865h-7a4.177,4.177,0,0,1-4-4.334v-4.333A4.178,4.178,0,0,1,961,852h7a4.178,4.178,0,0,1,4,4.334v4.333A4.177,4.177,0,0,1,968,865Zm2-8.745a2.133,2.133,0,0,0-2-2.245h-7a2.133,2.133,0,0,0-2,2.245v4.489a2.133,2.133,0,0,0,2,2.245h7a2.133,2.133,0,0,0,2-2.245v-4.489Zm-7-.268,4,2.512-4,2.512v-5.024Z" transform="translate(-863 -709)"/>
  </g>
  <g id="Telegram">
    <path id="Shape_933_copy" data-name="Shape 933 copy" class="cls-1" d="M1203.98,863.1a1,1,0,0,1-1.78.528c-1.09-.866-2.79-2.114-2.79-2.114s-1.23,2.167-1.45,2.389a0.683,0.683,0,0,1-1-.133,0.858,0.858,0,0,0-.04-0.1l0.69-3.452,4.92-4.833-6.71,3.829s-3.03-.906-3.48-1.083a0.7,0.7,0,0,1,.07-1.262c0.64-.326,11.93-4.638,12.31-4.749s1.38-.4,1.27.573S1204.09,862.565,1203.98,863.1Z" transform="translate(-863 -709)"/>
  </g>
  <g id="Skype">
    <path id="Ellipse_36_copy_2" data-name="Ellipse 36 copy 2" class="cls-1" d="M1208,815a5,5,0,0,1-5,5,4.938,4.938,0,0,1-3.03-1.047c-0.16.01-.31,0.047-0.47,0.047a7.5,7.5,0,0,1-7.5-7.5c0-.161.04-0.311,0.05-0.47A4.94,4.94,0,0,1,1191,808a4.975,4.975,0,0,1,8.03-3.952c0.16-.01.31-0.048,0.47-0.048a7.5,7.5,0,0,1,7.5,7.5c0,0.161-.04.312-0.05,0.47A4.94,4.94,0,0,1,1208,815Zm-5.22-2.9a2.149,2.149,0,0,0-.67-0.757,4.26,4.26,0,0,0-1.03-.5c-0.41-.139-0.86-0.264-1.35-0.378-0.39-.1-0.68-0.173-0.85-0.224a2.469,2.469,0,0,1-.5-0.21,1.106,1.106,0,0,1-.39-0.317,0.687,0.687,0,0,1-.13-0.428,0.833,0.833,0,0,1,.4-0.689,1.88,1.88,0,0,1,1.1-.293,1.692,1.692,0,0,1,1.06.267,2.107,2.107,0,0,1,.56.754,2.222,2.222,0,0,0,.35.5,0.7,0.7,0,0,0,.49.157,0.738,0.738,0,0,0,.58-0.259,0.875,0.875,0,0,0,.23-0.585,1.617,1.617,0,0,0-.18-0.716,2.244,2.244,0,0,0-.58-0.7,2.991,2.991,0,0,0-.98-0.53,4.481,4.481,0,0,0-1.41-.2,4.733,4.733,0,0,0-1.77.3,2.548,2.548,0,0,0-1.16.862,2.14,2.14,0,0,0-.4,1.286,2.109,2.109,0,0,0,.38,1.273,2.544,2.544,0,0,0,1.02.8,8.5,8.5,0,0,0,1.59.513c0.47,0.105.85,0.205,1.13,0.3a1.722,1.722,0,0,1,.68.4,0.912,0.912,0,0,1,.25.675,1.035,1.035,0,0,1-.48.879,2.07,2.07,0,0,1-1.27.356,1.991,1.991,0,0,1-.91-0.176,1.47,1.47,0,0,1-.54-0.448,3.281,3.281,0,0,1-.36-0.681,1.322,1.322,0,0,0-.34-0.537,0.692,0.692,0,0,0-.49-0.185,0.787,0.787,0,0,0-.59.235,0.774,0.774,0,0,0-.24.57,2.131,2.131,0,0,0,.38,1.146,2.81,2.81,0,0,0,.99.938,4.229,4.229,0,0,0,2.15.489,4.585,4.585,0,0,0,1.89-.358,2.747,2.747,0,0,0,1.21-.989,2.525,2.525,0,0,0,.42-1.428A2.4,2.4,0,0,0,1202.78,812.1Z" transform="translate(-863 -709)"/>
  </g>
  <g id="WhatsApp">
    <path id="Shape_51_copy_11" data-name="Shape 51 copy 11" class="cls-1" d="M1199.5,772a7.453,7.453,0,0,1-3.99-1.17L1192,772l1.17-3.511A7.486,7.486,0,1,1,1199.5,772Zm1.63-6.364a14.16,14.16,0,0,0,1.52.4,0.406,0.406,0,0,1,.34.476V766.8a0.661,0.661,0,0,1-.24.542,2.764,2.764,0,0,1-.86.592,3.48,3.48,0,0,1-2.66-.8,8.81,8.81,0,0,1-1.31-1.075,9.306,9.306,0,0,1-1.08-1.311,3.481,3.481,0,0,1-.79-2.655,2.782,2.782,0,0,1,.59-0.856,0.62,0.62,0,0,1,.54-0.236l0.29,0a0.417,0.417,0,0,1,.47.355c0.15,0.592.26,1.02,0.41,1.5,0.06,0.2-.01.248-0.17,0.368-0.1.077-.18,0.133-0.26,0.192a0.361,0.361,0,0,0-.17.509,5.6,5.6,0,0,0,.97,1.338,5.459,5.459,0,0,0,1.34.967,0.365,0.365,0,0,0,.51-0.169c0.06-.081.11-0.157,0.19-0.261a0.283,0.283,0,0,1,.37-0.171h0Z" transform="translate(-863 -709)"/>
  </g>
  <g id="Viber">
    <path class="cls-1" d="M1196.41,711.923c0.37,0.6,1.2,2.047,1.32,2.311a0.8,0.8,0,0,1-.24,1.066,5.551,5.551,0,0,0-.91.689c-0.14.267-.27,1.3,1.27,2.833s2.78,1.843,3.1,1.5,0.51-.722.71-0.922a0.862,0.862,0,0,1,1.16-.1,22.722,22.722,0,0,1,2.45,1.5c0.49,0.378.86,0.653,0.68,1.144a3.459,3.459,0,0,1-.8,1.311,2.512,2.512,0,0,1-2.28.678,10.228,10.228,0,0,1-3.25-1.433,20.287,20.287,0,0,1-2.92-2.544,20.645,20.645,0,0,1-2.23-2.588,11.9,11.9,0,0,1-1.41-3.555,2.085,2.085,0,0,1,.43-1.921,3.042,3.042,0,0,1,1.47-.844C1195.35,710.946,1195.79,710.946,1196.41,711.923Zm3.09,0.159V711a6.5,6.5,0,0,1,6.5,6.5h-1.08A5.421,5.421,0,0,0,1199.5,712.082Zm4.33,5.417h-1.08a3.253,3.253,0,0,0-3.25-3.25v-1.083A4.332,4.332,0,0,1,1203.83,717.5Z" transform="translate(-863 -709)"/>
  </g>
  <g id="Tumblr">
    <path id="t_copy_2" data-name="t copy 2" class="cls-1" d="M1154.6,862.984a4.273,4.273,0,0,0,2.4-.778v2.9a7.527,7.527,0,0,1-3.61.892,6.176,6.176,0,0,1-2.79-.651c-1.01-.576-1.63-1.346-1.61-3.277v-4.061H1147v-2.72a4.625,4.625,0,0,0,3.43-4.29H1153v3.973h3v3.037h-3v3.234C1153,862.513,1153.5,862.984,1154.6,862.984Z" transform="translate(-863 -709)"/>
  </g>
  <g id="Tencent_Weibo" data-name="Tencent Weibo">
    <path id="Ellipse_255_copy_2" data-name="Ellipse 255 copy 2" class="cls-1" d="M1162.98,815.732a0.276,0.276,0,0,1-.36.155,0.152,0.152,0,0,1-.02-0.006h0l-0.46-.188h0a7.311,7.311,0,0,1-3.96-3.865,1.186,1.186,0,1,1,.55-0.135,6.769,6.769,0,0,0,3.65,3.49l0.46,0.188h0A0.29,0.29,0,0,1,1162.98,815.732Zm-2.36-3.128h0a0.294,0.294,0,0,1-.51-0.285,0.268,0.268,0,0,1,.05-0.087,2.409,2.409,0,0,0,.37-0.634,2.55,2.55,0,0,0-1.39-3.31,2.521,2.521,0,0,0-3.29,1.408,2.555,2.555,0,0,0,1.4,3.31,2.5,2.5,0,0,0,.96.184,0.318,0.318,0,0,1,.13.02,0.3,0.3,0,0,1-.12.57v0a3.069,3.069,0,0,1-1.19-.228,3.146,3.146,0,0,1-1.72-4.079,3.094,3.094,0,0,1,4.04-1.735,3.142,3.142,0,0,1,1.73,4.078A3.431,3.431,0,0,1,1160.62,812.6Zm-11.94,1.519a5.473,5.473,0,0,1-1.59-.234v0a0.525,0.525,0,0,1,.13-1.033,0.544,0.544,0,0,1,.18.033,4.416,4.416,0,0,0,1.28.188,4.513,4.513,0,1,0-4.48-4.513,4.619,4.619,0,0,0,.33,1.71,0.461,0.461,0,0,1,.06.232,0.529,0.529,0,0,1-.53.524,0.51,0.51,0,0,1-.48-0.342h-0.01a5.747,5.747,0,0,1-.41-2.125A5.52,5.52,0,1,1,1148.68,814.123Zm-2.09-5.562a2.09,2.09,0,1,1,.73,1.6,12.415,12.415,0,0,0-3.33,8.478v0.892h0a0.5,0.5,0,0,1-.5.472,0.494,0.494,0,0,1-.49-0.5v-0.026h0v-0.892h0a13.382,13.382,0,0,1,3.74-9.252A2.185,2.185,0,0,1,1146.59,808.561Z" transform="translate(-863 -709)"/>
  </g>
  <g id="Surfingbird">
    <path class="cls-1" d="M1143,760.733l6.92,0.978L1146.41,757l8.85,4.889,2.62-2.933h1.32l2.8,1.333-3.15.978-0.35,2.4-4.03,4h-2.28l-0.78,2.222V773l-2.89-.977,3.32-6.134Z" transform="translate(-863 -709)"/>
  </g>
  <g id="Sina_Weibo" data-name="Sina Weibo">
    <path id="Ellipse_253_copy_7" data-name="Ellipse 253 copy 7" class="cls-1" d="M1161.73,716.038h-0.01a0.724,0.724,0,0,1-.68.433,0.7,0.7,0,0,1-.73-0.665,0.556,0.556,0,0,1,.03-0.182h0v-0.007c0-.007.01-0.015,0.01-0.022a2.966,2.966,0,0,0,.19-1.032,3.414,3.414,0,0,0-3.56-3.236,3.967,3.967,0,0,0-.64.052v-0.013a0.817,0.817,0,0,1-.28.05,0.7,0.7,0,0,1-.73-0.664,0.681,0.681,0,0,1,.59-0.652h0a5.445,5.445,0,0,1,1.06-.1,4.81,4.81,0,0,1,5.02,4.565A4.278,4.278,0,0,1,1161.73,716.038Zm-4.73-2.532a1.287,1.287,0,0,0-.23.02v0a0.649,0.649,0,0,1-.17.021,0.578,0.578,0,1,1-.08-1.153,2.7,2.7,0,0,1,.48-0.043,2.351,2.351,0,0,1,2.45,2.232,2.163,2.163,0,0,1-.13.722h0a0.646,0.646,0,0,1-.6.385,0.614,0.614,0,0,1-.64-0.579,0.456,0.456,0,0,1,.04-0.2h0a0.9,0.9,0,0,0,.06-0.328A1.131,1.131,0,0,0,1157,713.506Zm-0.21.885a1.357,1.357,0,0,1,.3,1.567c-0.17.506-.23,0.555-0.15,0.648a2.757,2.757,0,0,0,.71.272,3.262,3.262,0,0,1,1.54,1.056,2.085,2.085,0,0,1,.22,2.011,4.784,4.784,0,0,1-1.42,1.874,10.355,10.355,0,0,1-2.21,1.294,14.268,14.268,0,0,1-2.96.783,19.176,19.176,0,0,1-1.98.1,13.882,13.882,0,0,1-2.44-.238,13.01,13.01,0,0,1-2.77-.886,6.128,6.128,0,0,1-2.25-1.941,3,3,0,0,1-.26-2.419,6.145,6.145,0,0,1,1.35-2.521,8.051,8.051,0,0,1,.63-0.716,12.837,12.837,0,0,1,2.33-1.975,9.709,9.709,0,0,1,2.47-1.159,2.506,2.506,0,0,1,2.17.2,1.606,1.606,0,0,1,.34,1.534,1.074,1.074,0,0,0-.15.715,0.624,0.624,0,0,0,.6-0.068,7.433,7.433,0,0,1,1.46-.409A3.252,3.252,0,0,1,1156.79,714.391Zm-6.58,1.781c-3.14.3-5.53,2.059-5.32,3.935s2.93,3.158,6.08,2.861,5.53-2.06,5.32-3.936S1153.36,715.875,1150.21,716.172Zm0.61,6.065c-1.64.363-3.24-.376-3.59-1.651s0.7-2.6,2.34-2.968,3.25,0.375,3.6,1.651S1152.46,721.873,1150.82,722.237Zm-0.54-2.155a1.093,1.093,0,1,0-.76,1.129A0.973,0.973,0,0,0,1150.28,720.082Zm0.92-.716a0.373,0.373,0,0,0-.47-0.224,0.381,0.381,0,0,0-.3.428,0.372,0.372,0,0,0,.47.223A0.364,0.364,0,0,0,1151.2,719.366Z" transform="translate(-863 -709)"/>
  </g>
  <g id="Renren">
    <path id="Rounded_Rectangle_117_copy_2" data-name="Rounded Rectangle 117 copy 2" class="cls-1" d="M1114.67,861.768a5.531,5.531,0,0,1-3.67-5.209V852.09A6,6,0,0,1,1114.67,861.768ZM1110,864a5.919,5.919,0,0,1-3.06-.844,7.557,7.557,0,0,0,3.03-2.868,7.551,7.551,0,0,0,2.96,2.945A5.956,5.956,0,0,1,1110,864Zm-4.1-2.582a5.922,5.922,0,0,0-.4-7.377,5.972,5.972,0,0,1,3.5-1.948V856.5A5.463,5.463,0,0,1,1105.9,861.417Zm-0.8,0a5.463,5.463,0,0,1-3.1-4.918v-4.407a6,6,0,0,1,3.5,1.948A5.922,5.922,0,0,0,1105.1,861.417ZM1101,864a5.956,5.956,0,0,1-2.93-.767,7.551,7.551,0,0,0,2.96-2.945,7.557,7.557,0,0,0,3.03,2.868A5.919,5.919,0,0,1,1101,864Zm-4.67-2.231a6,6,0,0,1,3.67-9.678v4.469A5.531,5.531,0,0,1,1096.33,861.768Z" transform="translate(-863 -709)"/>
  </g>
  <g id="Qzone">
    <path id="Shape_451_copy" data-name="Shape 451 copy" class="cls-1" d="M1114.9,809.8h0l-4.47,3.888,0.16,0.825-0.28,0c-3.18.006-5.94-.289-5.94-0.289l6.09-4.081c-3.14-.716-7.8-0.295-9.96-0.035-0.73.088-1.17,0.157-1.17,0.157l0.12,0.078s1.43,0,1.83.017c3.89,0.209,5.81.432,5.81,0.432l-6.03,4.148c4.09,0.81,9.2,0,11.17-.382a0.131,0.131,0,0,1-.04.016c-0.36.138-1.21,0.48-1.36,0.52a0.33,0.33,0,0,0-.12.082l0.83,4.406a0.2,0.2,0,0,1,.01.077,0.347,0.347,0,0,1-.36.334,0.441,0.441,0,0,1-.18-0.044h0l-5.51-3-5.48,2.977a0.366,0.366,0,0,1-.21.066,0.347,0.347,0,0,1-.36-0.334v-0.044l1.2-5.932-4.53-3.874a0.243,0.243,0,0,1-.02-0.014v0h0a0.32,0.32,0,0,1-.1-0.227,0.342,0.342,0,0,1,.32-0.331l0.01,0,6-.594,2.84-5.432a0.021,0.021,0,0,1,.01-0.021v-0.01h0a0.377,0.377,0,0,1,.64,0h0l2.85,5.463,6.01,0.594v0a0.344,0.344,0,0,1,.32.33A0.328,0.328,0,0,1,1114.9,809.8Z" transform="translate(-863 -709)"/>
  </g>
  <g id="Pocket">
    <path id="Rounded_Rectangle_116" data-name="Rounded Rectangle 116" class="cls-1" d="M1105.5,773a8.5,8.5,0,0,1-8.5-8.5V758a1,1,0,0,1,1-1h15a1,1,0,0,1,1,1v6.5A8.5,8.5,0,0,1,1105.5,773Zm5.18-10.751a0.994,0.994,0,0,0-1.41,0l-3.77,3.427-3.8-3.383a1,1,0,1,0-1.41,1.415l4.51,4.019a1.008,1.008,0,0,0,1.42,0l4.46-4.064A1,1,0,0,0,1110.68,762.248Z" transform="translate(-863 -709)"/>
  </g>
  <g id="LiveID">
    <path class="cls-1" d="M876.954,806.639l-2.211,8.412a2.119,2.119,0,0,1-1.859,1.5l2.278-8.5a0.75,0.75,0,0,0-.447-0.881l-4.847-1.435a0.431,0.431,0,0,0-.552.214l4.4,1.708a0.714,0.714,0,0,1,.424.835l-2.69,10.164a0.431,0.431,0,0,1-.584.29l-6.555-2.675a0.5,0.5,0,0,1-.3-0.42,0.471,0.471,0,0,1-.062-0.368L864.317,814H868l-0.014,2.224,4.234-4.234-4.234-4.173L868,810h-2.7l0.907-3.694,0.064-.268a3.269,3.269,0,0,1,.242-0.854,0.121,0.121,0,0,1,.01-0.014,0.455,0.455,0,0,1,.414-0.193h8.518A1.31,1.31,0,0,1,876.954,806.639Z" transform="translate(-863 -709)"/>
  </g>
  <g id="Livejournal">
    <path id="Ellipse_76_copy_4" data-name="Ellipse 76 copy 4" class="cls-1" d="M1017.39,771.018l-5.01-1-0.86-.86h0l-0.17-.164h0l-3.35-3.356h0l-1.18-1.18h0l-2.69-2.685c-0.46-.456.22-1.873,1.51-3.163s2.71-1.966,3.16-1.51l2.69,2.685h0l0.2,0.2,5.36,5.362,1.01,5Zm-2.32-4.343a6.716,6.716,0,0,0-.71.651,5.568,5.568,0,0,0-.64.7l1.63,0.269Zm-6.74-7.4c-0.37-.371-0.79.109-1.35,0.665s-1.04.978-.67,1.349l1.1,1.092a8.37,8.37,0,0,1,.92-1.086,8.138,8.138,0,0,1,1.09-.926Zm3.01,3.015h0l-0.14-.141-0.19-.189c-0.37-.37-0.79.11-1.34,0.666s-1.04.977-.67,1.348l0.16,0.158,2.95,2.948a7.533,7.533,0,0,1,.92-1.085,8.235,8.235,0,0,1,1.09-.928Z" transform="translate(-863 -709)"/>
  </g>
  <g id="LinkedIn">
    <path class="cls-1" d="M961,809h-3v9h3v-9Zm4,0h-3v9h3v-5a1.785,1.785,0,0,1,1.524-1.006,1.434,1.434,0,0,1,1.454,1.646L968,818h3v-5c0-2.127-.622-4-3.263-4a3.377,3.377,0,0,0-2.75,1.388Zm-5.5-4a1.5,1.5,0,1,1-1.5,1.5A1.5,1.5,0,0,1,959.5,805Z" transform="translate(-863 -709)"/>
  </g>
  <g id="Evernote">
    <path id="Shape_450_copy" data-name="Shape 450 copy" class="cls-1" d="M1106.29,710.358a29.169,29.169,0,0,1,3.32.168c1.35,0.182,1.88.5,2.05,1.736a52.766,52.766,0,0,1,.33,6.217c-0.06,1.7-.62,5.36-1.16,6.217a2.208,2.208,0,0,1-1.94,1.289,14.26,14.26,0,0,1-2.59-.113,1.531,1.531,0,0,1-1.29-1.571c-0.05-1.116-.06-1.489.5-1.961a2.23,2.23,0,0,1,1.31-.342c0.41-.023,1.2-0.023,1.2-0.023a0.973,0.973,0,0,0-.08.986s-0.92.046-1.1,0.069a0.59,0.59,0,0,0-.49.684c0.04,0.479.27,0.564,0.76,0.564s1.26-.022,1.51-0.045a0.833,0.833,0,0,0,.67-0.82,6.378,6.378,0,0,0-.2-1.958,1.342,1.342,0,0,0-1.42-.889,3.7,3.7,0,0,1-2.08-.563,3.443,3.443,0,0,1-.5-1.8s-0.14,1.241-.29,1.889-0.3,1.166-1.22,1.037a27.674,27.674,0,0,1-3.5-.679,1.713,1.713,0,0,1-1.14-1.238,20.249,20.249,0,0,1-.75-3.121,6.712,6.712,0,0,1-.18-1.931,1.2,1.2,0,0,1,1.27-1.172c0.91-.036,1.33-0.018,1.63-0.018a0.865,0.865,0,0,0,1.12-.826c-0.01-.907-0.03-1.027-0.04-1.352a1.594,1.594,0,0,1,1.61-1.782c1.55-.01,1.99.129,2.32,0.555A1.594,1.594,0,0,1,1106.29,710.358Zm-8.09,1.885,3.03-2.806a1.309,1.309,0,0,0-.21.574c-0.03.322-.01,1.547-0.02,1.678s0,0.292-.22.3-1.67-.01-1.87,0A1.477,1.477,0,0,0,1098.2,712.243Zm9.82,4.811a1.072,1.072,0,0,1,1-1.147,1.141,1.141,0,0,1,1.04,1.289A4.377,4.377,0,0,0,1108.02,717.054Z" transform="translate(-863 -709)"/>
  </g>
  <g id="Reddit">
    <path id="Rounded_Rectangle_114_copy_4" data-name="Rounded Rectangle 114 copy 4" class="cls-1" d="M1060.37,854.178a9.68,9.68,0,0,1,3.6,1.353,2.5,2.5,0,1,1,2.93,4.037,4.826,4.826,0,0,1,.1.932c0,3.59-3.81,6.5-8.5,6.5s-8.5-2.909-8.5-6.5a4.826,4.826,0,0,1,.1-0.932,2.5,2.5,0,0,1,1.4-4.568,2.451,2.451,0,0,1,1.52.531,10.17,10.17,0,0,1,5.37-1.524l0.64-3.136v-0.016c0-.01.01-0.018,0.01-0.028l0.02-.083a0.362,0.362,0,0,1,.04-0.1,0.882,0.882,0,0,1,.11-0.219,0.771,0.771,0,0,1,.11-0.126,0.952,0.952,0,0,1,.15-0.133,0.684,0.684,0,0,1,.18-0.086,0.758,0.758,0,0,1,.16-0.06,1.058,1.058,0,0,1,.21-0.012,0.988,0.988,0,0,1,.14-0.009l3.35,0.671a2,2,0,1,1-.4,1.956l-2.33-.465ZM1063,859.5a1.5,1.5,0,1,0-1.5,1.5A1.5,1.5,0,0,0,1063,859.5Zm-7.5-1.5a1.5,1.5,0,1,0,1.5,1.5A1.5,1.5,0,0,0,1055.5,858Zm-0.29,5.191-0.55.812a7.893,7.893,0,0,0,7.68,0l-0.55-.812A7.1,7.1,0,0,1,1055.21,863.191Z" transform="translate(-863 -709)"/>
  </g>
  <g id="Digg">
    <path class="cls-1" d="M1067,819h-4v-2h3v-1h-3v-8h5v11h-1Zm-2-9v4h1v-4h-1Zm-5,9h-3v-2h3v-1h-3v-8h5v11h-2Zm0-9h-1v4h1v-4Zm-6-2h2v8h-2v-8Zm0-3h2v2h-2v-2Zm-3,11h-3v-8h3v-3h2v11h-2Zm0-6h-1v4h1v-4Z" transform="translate(-863 -709)"/>
  </g>
  <g id="Delicious">
    <path id="Rectangle_576_copy" data-name="Rectangle 576 copy" class="cls-1" d="M1059,757h8v8h-8v-8Zm-8,8h8v8h-8v-8Z" transform="translate(-863 -709)"/>
  </g>
  <g id="Blogger">
    <path class="cls-1" d="M923.965,810.863l-0.111-.245-0.186-.155c-0.244-.2-1.237.014-1.57-0.3a2.105,2.105,0,0,1-.342-1.205,3.641,3.641,0,0,0-.377-1.51,4.634,4.634,0,0,0-3.242-2.427H915.2a4.342,4.342,0,0,0-4.2,4.45v4.077a4.338,4.338,0,0,0,4.2,4.442h4.823c2.309,0,3.941-2,3.955-4.442l0.026-2.482Zm-9.136-2.852h3.316a1,1,0,0,1,0,1.976h-3.316A1,1,0,0,1,914.829,808.011ZM920.181,815h-5.36a1.027,1.027,0,0,1,0-2.006h5.36A1.028,1.028,0,0,1,920.181,815Z" transform="translate(-863 -709)"/>
  </g>
  <g id="Twitter">
    <path id="Твиттер_copy_21" data-name="Твиттер copy 21" class="cls-1" d="M870.256,762.4s0.237-3.348,2.571-3.377c1.9-.025,2.264.838,2.264,0.838a4.285,4.285,0,0,0,1.557-.862,2.551,2.551,0,0,1-.637,1.508,1.574,1.574,0,0,0,.99-0.359,1.941,1.941,0,0,1-1.038,1.244,9.716,9.716,0,0,1-1.6,5.917c-1.7,2.468-4.792,2.653-6.488,2.674a9.046,9.046,0,0,1-3.867-1.127s2.573,0.031,3.725-.81a18.237,18.237,0,0,1-2.55-2.107,2.542,2.542,0,0,0,.923-0.093,13.754,13.754,0,0,1-2.1-2.9,3.357,3.357,0,0,0,.968.05s-1.5-2.436-.79-4.015C864.184,758.985,866.719,762.187,870.256,762.4Z" transform="translate(-863 -709)"/>
  </g>
  <g id="Pinterest">
    <path id="Shape_449_copy" data-name="Shape 449 copy" class="cls-1" d="M1055.07,721.04c0.24-1.242.75-3.418,0.86-3.627a1.12,1.12,0,0,0,.06-0.907,4.207,4.207,0,0,1,0-2.479,1.675,1.675,0,0,1,2.27-1.088c1.09,0.461.49,2.173,0.36,2.7a10.307,10.307,0,0,0-.57,2.536,1.462,1.462,0,0,0,1.47,1.432,2.745,2.745,0,0,0,2.33-1.7,7.683,7.683,0,0,0,.76-3.326,4.019,4.019,0,0,0-.76-2.568,4.39,4.39,0,0,0-3.27-1.369,4.626,4.626,0,0,0-3.15,1.169,4.7,4.7,0,0,0-1.56,3.2,3.408,3.408,0,0,0,.36,1.812,1.793,1.793,0,0,1,.44.872c-0.04.214-.22,0.84-0.25,0.955s-0.29.346-.7,0.082a3.407,3.407,0,0,1-1.46-1.875,5.991,5.991,0,0,1,.03-3.627,7,7,0,0,1,2.29-2.957,7.234,7.234,0,0,1,4.39-1.288,6,6,0,0,1,4.48,1.856,5.608,5.608,0,0,1,1.54,4.187,6.975,6.975,0,0,1-1.79,4.742,4.38,4.38,0,0,1-3.45,1.482,3.208,3.208,0,0,1-2.3-1.087s-0.56,1.976-.74,2.585a11.445,11.445,0,0,1-1.08,2.387,2.5,2.5,0,0,1-.83.856,13.942,13.942,0,0,1-.05-3.259A10.41,10.41,0,0,1,1055.07,721.04Z" transform="translate(-863 -709)"/>
  </g>
  <g id="Yandex">
    <path class="cls-1" d="M967.781,757.976h-2.287a4.257,4.257,0,0,0-4.479,4.342,3.687,3.687,0,0,0,2.567,3.613l-2.554,4.091a1.252,1.252,0,0,0,.02.98h1.377a0.234,0.234,0,0,0,.241-0.121l2.788-4.627h0.531v4.627a0.141,0.141,0,0,0,.14.121h1.716a0.13,0.13,0,0,0,.161-0.139V758.15A0.178,0.178,0,0,0,967.781,757.976Zm-1.8,6.966h-0.37a2.469,2.469,0,0,1-2.608-2.8c0-2.171,1.2-2.936,2.427-2.936h0.551v5.733Z" transform="translate(-863 -709)"/>
  </g>
  <g id="Google_" data-name="Google+">
    <path class="cls-1" d="M927,860h-2v2h-2v-2h-2v-2h2v-2h2v2h2v2Zm-12.5,4a5.5,5.5,0,1,1,4.43-8.733l-1.7,1.066A3.494,3.494,0,1,0,914.5,862a3.727,3.727,0,0,0,3.307-2H915v-2h5v2A5.769,5.769,0,0,1,914.5,864Z" transform="translate(-863 -709)"/>
  </g>
  <g id="Moi_mir" data-name="Moi mir">
    <path id="Rounded_Rectangle_115_copy" data-name="Rounded Rectangle 115 copy" class="cls-1" d="M1008.5,712a1.5,1.5,0,1,1-1.5,1.5A1.5,1.5,0,0,1,1008.5,712Zm6,0a1.5,1.5,0,1,1-1.5,1.5A1.5,1.5,0,0,1,1014.5,712Zm4,10.874a1.012,1.012,0,0,1-1.37-.361l-0.83-1.272a7.423,7.423,0,0,1-9.59,0l-0.84,1.294a1,1,0,0,1-1.74-1l2-3.081a1,1,0,0,1,1.74,1l-0.06.092a5.423,5.423,0,0,0,7.38,0l-0.06-.084a0.985,0.985,0,0,1,.37-1.348,1.012,1.012,0,0,1,1.37.361l2,3.043A0.986,0.986,0,0,1,1018.5,722.874Z" transform="translate(-863 -709)"/>
  </g>
  <g id="Одноклассники">
    <path id="Одноклассники_copy_26" data-name="Одноклассники copy 26" class="cls-1" d="M917.5,711a3.5,3.5,0,1,1-3.518,3.5A3.506,3.506,0,0,1,917.5,711Zm0.008,1.956a1.52,1.52,0,1,1-1.535,1.519A1.527,1.527,0,0,1,917.505,712.954Zm-0.008,6.06a5.822,5.822,0,0,0,1.965-.357,5.882,5.882,0,0,1,1.116-.564c0.22,0.008.583,0.373,0.521,1.317-0.035.538-1.018,0.761-1.364,0.967a2.266,2.266,0,0,1-.725.247s0.847,0.906,1.063,1.129a2.667,2.667,0,0,1,.948,1.278,1.342,1.342,0,0,1-1,1,4.493,4.493,0,0,1-1.4-1.12c-0.583-.556-1.115-1.07-1.115-1.07s-0.546.487-1.115,1.049a4.622,4.622,0,0,1-1.368,1.141,1.441,1.441,0,0,1-1.062-1.16,6.331,6.331,0,0,1,1.241-1.487,8.055,8.055,0,0,1,.8-0.757,1.9,1.9,0,0,1-.638-0.208c-0.481-.267-1.511-0.547-1.484-1.043,0.028-.512.159-1.3,0.616-1.3a6.116,6.116,0,0,1,1.119.542A4.376,4.376,0,0,0,917.5,719.014Z" transform="translate(-863 -709)"/>
  </g>
  <g id="Facebook">
    <path id="facebook_copy_21" data-name="facebook copy 21" class="cls-1" d="M966.988,712.98L967.3,711a15.907,15.907,0,0,0-2.4.018,2.247,2.247,0,0,0-1.427.784,2.457,2.457,0,0,0-.477,1.6v2.591l-2-.014v2.007l2,0.007v6l2.013,0v-6l2.374,0,0.31-2.007h-2.684s0-2.286,0-2.51a0.562,0.562,0,0,1,.671-0.486C966.122,712.979,966.988,712.98,966.988,712.98Z" transform="translate(-863 -709)"/>
  </g>
  <g id="Vkontakte">
    <path id="Вконтакте_copy_26" data-name="Вконтакте copy 26" class="cls-1" d="M871.994,713.77v3.257a0.339,0.339,0,0,0,.426.35c0.3-.02.978-2.8,1.279-3.4a1.932,1.932,0,0,1,.738-0.827,0.609,0.609,0,0,1,.367-0.155h2.878a0.464,0.464,0,0,1,.3.728c-0.225.5-2.155,3.61-2.255,3.736a1.311,1.311,0,0,0-.237.55,1.2,1.2,0,0,0,.312.626c0.2,0.227,1.816,2.006,1.967,2.155a1.2,1.2,0,0,1,.275.577,0.763,0.763,0,0,1-.8.613c-0.626,0-2.166,0-2.342,0a2.8,2.8,0,0,1-.952-0.565c-0.225-.2-1.059-1.152-1.184-1.277a0.407,0.407,0,0,0-.351-0.145c-0.15,0-.435.015-0.422,0.584a2,2,0,0,1-.238,1.14,0.993,0.993,0,0,1-.737.275,5,5,0,0,1-2.914-.727c-1.574-.978-3.366-3.589-4.2-5.254a6.513,6.513,0,0,1-.9-2.715c0.05-.176.05-0.3,0.226-0.3s2.389,0,2.6,0a0.845,0.845,0,0,1,.351.327c0.075,0.1.647,1.812,0.822,2.113s1.038,1.95,1.506,1.95a0.6,0.6,0,0,0,.474-0.7c0-.4,0-1.979,0-2.18a1.939,1.939,0,0,0-.978-1,1.261,1.261,0,0,1,.927-0.5c0.6-.025,2.105-0.025,2.43.024A0.782,0.782,0,0,1,871.994,713.77Z" transform="translate(-863 -709)"/>
  </g>
  <g id="Kollections">
    <path class="cls-1" d="M1242,712v12l4.5-3,4.5,3V712h-9Z" transform="translate(-863 -709)"/>
  </g>
</svg>
